<?xml version="1.0" encoding="UTF-8"?>
<svg width="32" height="32" viewBox="0 0 32 32" fill="none" xmlns="http://www.w3.org/2000/svg">
  <rect width="32" height="32" rx="8" fill="#2563EB"/>
  <path d="M24.4 12.9c-.3-.7-1.1-1.2-1.9-1.2h-1.5l-1.2-3.6c-.3-.7-1.1-1.2-1.9-1.2H10.1c-.8 0-1.6.5-1.9 1.2L7 11.7H5.5c-.8 0-1.6.5-1.9 1.2L2 17.3v8.2c0 .8.7 1.5 1.5 1.5h21c.8 0 1.5-.7 1.5-1.5v-8.2l-1.6-4.4zM10.8 9.1h6.4l1 3H9.8l1-3zm11.7 15H5.5v-6.7l1.6-4.4h13.8l1.6 4.4v6.7z" fill="white"/>
  <path d="M12 18.5c0 .8-.7 1.5-1.5 1.5S9 19.3 9 18.5s.7-1.5 1.5-1.5 1.5.7 1.5 1.5zm7 0c0 .8-.7 1.5-1.5 1.5s-1.5-.7-1.5-1.5.7-1.5 1.5-1.5 1.5.7 1.5 1.5z" fill="white"/>
</svg>